<?xml version="1.0" encoding="utf-8"?>
<svg width="20px" height="20px" viewBox="0 0 1024 1024" class="icon" xmlns="http://www.w3.org/2000/svg">
  <path d="M 960 515.088 C 960 512.59 960 509.754 959.9 506.462 C 959.8 497.269 959.6 486.94 959.4 475.93 C 958.6 444.265 957.2 412.712 955 382.974 C 952 342.001 947.6 307.837 941.6 282.185 C 928.715 227.709 891.271 185.125 843.3 170.39 C 815 161.763 759.6 156.428 681.6 153.137 C 644.5 151.549 604.8 150.528 565.1 149.96 C 551.2 149.732 538.3 149.619 526.7 149.505 L 497.3 149.505 C 485.7 149.619 472.8 149.732 458.9 149.96 C 419.2 150.528 379.5 151.549 342.4 153.137 C 264.4 156.542 208.9 161.877 180.7 170.39 C 132.711 185.091 95.254 227.689 82.4 282.185 C 76.3 307.837 72 342.001 69 382.974 C 66.8 412.712 65.4 444.265 64.6 475.93 C 64.3 486.94 64.2 497.269 64.1 506.462 C 64.1 509.754 64 512.59 64 515.088 L 64 521.443 C 64 523.94 64 526.777 64.1 530.069 C 64.2 539.263 64.4 549.592 64.6 560.601 C 65.4 592.268 66.8 623.82 69 653.557 C 72 694.531 76.4 728.694 82.4 754.346 C 95.2 808.711 132.8 851.614 180.7 866.141 C 208.9 874.768 264.4 880.103 342.4 883.394 C 379.5 884.983 419.2 886.005 458.9 886.572 C 472.8 886.8 485.7 886.912 497.3 887.026 L 526.7 887.026 C 538.3 886.912 551.2 886.8 565.1 886.572 C 604.8 886.005 644.5 884.983 681.6 883.394 C 759.6 879.989 815.1 874.655 843.3 866.141 C 891.2 851.614 928.8 808.825 941.6 754.346 C 947.7 728.694 952 694.531 955 653.557 C 957.2 623.82 958.6 592.268 959.4 560.601 C 959.7 549.592 959.8 539.263 959.9 530.069 C 959.9 526.777 960 523.94 960 521.443 L 960 515.088 Z M 888 520.99 C 888 523.373 888 525.984 887.9 529.048 C 887.8 537.9 887.6 547.662 887.4 558.217 C 886.7 588.409 885.3 618.6 883.2 646.634 C 880.5 683.181 876.7 713.145 872 733.235 C 865.8 759.452 847.6 780.223 824.6 787.146 C 803.6 793.503 750.7 798.61 678.8 801.674 C 642.4 803.264 603.2 804.285 564.1 804.852 C 550.4 805.079 537.7 805.192 526.3 805.192 L 497.7 805.192 L 459.9 804.852 C 420.8 804.285 381.7 803.264 345.2 801.674 C 273.3 798.496 220.3 793.503 199.4 787.146 C 176.4 780.11 158.2 759.452 152 733.235 C 147.3 713.145 143.5 683.181 140.8 646.634 C 138.7 618.6 137.4 588.409 136.6 558.217 C 136.3 547.662 136.2 537.788 136.1 529.048 C 136.1 525.984 136 523.259 136 520.99 L 136 515.542 C 136 513.158 136 510.548 136.1 507.483 C 136.2 498.631 136.4 488.869 136.6 478.315 C 137.3 448.123 138.7 417.931 140.8 389.897 C 143.5 353.35 147.3 323.387 152 303.297 C 158.2 277.08 176.4 256.309 199.4 249.386 C 220.4 243.029 273.3 237.922 345.2 234.857 C 381.6 233.268 420.8 232.247 459.9 231.679 C 473.6 231.453 486.3 231.339 497.7 231.339 L 526.3 231.339 L 564.1 231.679 C 603.2 232.247 642.3 233.268 678.8 234.857 C 750.7 238.036 803.7 243.029 824.6 249.386 C 847.6 256.422 865.8 277.08 872 303.297 C 876.7 323.387 880.5 353.35 883.2 389.897 C 885.3 417.931 886.6 448.123 887.4 478.315 C 887.7 488.869 887.8 498.744 887.9 507.483 C 887.9 510.548 888 513.272 888 515.542 L 888 520.99 Z M 423 670.355 L 655 517.13 L 423 366.176 L 423 670.355 Z" style=""/>
</svg>