<?xml version="1.0" encoding="utf-8"?>
<svg width="32px" height="32px" viewBox="0 0 32 32" xmlns="http://www.w3.org/2000/svg">
  <path d="M 16.028 3.161 C 8.796 3.161 2.937 9.046 2.937 16.307 C 2.937 23.57 8.796 29.455 16.028 29.455 C 23.259 29.455 29.119 23.57 29.119 16.307 C 29.119 9.046 23.259 3.161 16.028 3.161 Z M 16.028 5.352 C 22.087 5.352 26.937 10.223 26.937 16.307 C 26.937 22.393 22.087 27.263 16.028 27.263 C 9.968 27.263 5.119 22.393 5.119 16.307 C 5.119 10.223 9.968 5.352 16.028 5.352 Z M 14.289 10.556 C 12.167 10.556 10.317 10.753 8.562 11.309 C 8.098 11.403 7.71 11.754 7.71 12.404 C 7.71 13.055 8.187 13.629 8.835 13.535 C 9.112 13.535 9.299 13.432 9.483 13.432 C 10.961 13.06 12.627 12.884 14.289 12.884 C 17.519 12.884 20.835 13.607 23.051 14.904 C 23.327 14.998 23.421 15.109 23.698 15.109 C 24.346 15.109 24.798 14.63 24.891 13.979 C 24.891 13.424 24.614 13.068 24.244 12.884 C 21.474 11.309 17.796 10.556 14.289 10.556 Z M 13.982 14.63 C 12.043 14.63 10.663 14.908 9.278 15.28 C 8.817 15.465 8.562 15.752 8.562 16.307 C 8.562 16.77 8.928 17.232 9.483 17.232 C 9.67 17.232 9.751 17.224 10.028 17.13 C 11.042 16.851 12.436 16.684 13.914 16.684 C 16.961 16.684 19.612 17.429 21.55 18.636 C 21.734 18.73 21.921 18.807 22.198 18.807 C 22.753 18.807 23.118 18.337 23.118 17.78 C 23.118 17.407 22.944 17.04 22.573 16.856 C 20.175 15.37 17.123 14.63 13.982 14.63 Z M 14.289 18.636 C 12.721 18.636 11.234 18.811 9.755 19.183 C 9.385 19.278 9.108 19.543 9.108 20.005 C 9.108 20.377 9.397 20.758 9.858 20.758 C 9.952 20.758 10.22 20.656 10.403 20.656 C 11.604 20.377 12.896 20.21 14.187 20.21 C 16.492 20.21 18.601 20.767 20.357 21.785 C 20.545 21.879 20.753 21.957 20.937 21.957 C 21.308 21.957 21.661 21.678 21.755 21.306 C 21.755 20.84 21.555 20.669 21.278 20.484 C 19.245 19.278 16.871 18.636 14.289 18.636 Z" style=""/>
</svg>